<svg id="Layer_1" data-name="Layer 1" xmlns="http://www.w3.org/2000/svg" viewBox="0 0 174 1080"><defs><style>.cls-1,.cls-2{stroke:#000;stroke-miterlimit:10;}.cls-1{stroke-width:19px;}.cls-2{stroke-linecap:round;stroke-width:11px;}</style></defs><title>rails</title><line class="cls-1" x1="22.5" x2="22.5" y2="1080"/><line class="cls-1" x1="153.5" x2="153.5" y2="1080"/><line class="cls-2" x1="5.5" y1="39.5" x2="168.5" y2="39.5"/><line class="cls-2" x1="5.5" y1="81.5" x2="168.5" y2="81.5"/><line class="cls-2" x1="5.5" y1="123.5" x2="168.5" y2="123.5"/><line class="cls-2" x1="5.5" y1="165.5" x2="168.5" y2="165.5"/><line class="cls-2" x1="5.5" y1="207.5" x2="168.5" y2="207.5"/><line class="cls-2" x1="5.5" y1="249.5" x2="168.5" y2="249.5"/><line class="cls-2" x1="5.5" y1="291.5" x2="168.5" y2="291.5"/><line class="cls-2" x1="5.5" y1="333.5" x2="168.5" y2="333.5"/><line class="cls-2" x1="5.5" y1="375.5" x2="168.5" y2="375.5"/><line class="cls-2" x1="5.5" y1="417.5" x2="168.5" y2="417.5"/><line class="cls-2" x1="5.5" y1="459.5" x2="168.5" y2="459.5"/><line class="cls-2" x1="5.5" y1="501.5" x2="168.5" y2="501.5"/><line class="cls-2" x1="5.5" y1="543.5" x2="168.5" y2="543.5"/><line class="cls-2" x1="5.5" y1="585.5" x2="168.5" y2="585.5"/><line class="cls-2" x1="5.5" y1="627.5" x2="168.5" y2="627.5"/><line class="cls-2" x1="5.5" y1="669.5" x2="168.5" y2="669.5"/><line class="cls-2" x1="5.5" y1="711.5" x2="168.5" y2="711.5"/><line class="cls-2" x1="5.5" y1="753.5" x2="168.5" y2="753.5"/><line class="cls-2" x1="5.5" y1="795.5" x2="168.5" y2="795.5"/><line class="cls-2" x1="5.5" y1="837.5" x2="168.5" y2="837.5"/><line class="cls-2" x1="5.5" y1="879.5" x2="168.5" y2="879.5"/><line class="cls-2" x1="5.5" y1="921.5" x2="168.5" y2="921.5"/><line class="cls-2" x1="5.5" y1="963.5" x2="168.5" y2="963.5"/><line class="cls-2" x1="5.5" y1="1005.5" x2="168.5" y2="1005.5"/><line class="cls-2" x1="5.5" y1="1047.5" x2="168.5" y2="1047.5"/></svg>